<?xml version="1.0" standalone="no"?>
<!DOCTYPE svg PUBLIC "-//W3C//DTD SVG 20010904//EN"
 "http://www.w3.org/TR/2001/REC-SVG-20010904/DTD/svg10.dtd">
<svg version="1.0" xmlns="http://www.w3.org/2000/svg"
 width="80.000000pt" height="80.000000pt" viewBox="0 0 80.000000 80.000000"
 preserveAspectRatio="xMidYMid meet">
<metadata>
Created by potrace 1.14, written by Peter Selinger 2001-2017
</metadata>
<g transform="translate(0.000000,80.000000) scale(0.100000,-0.100000)"
fill="#000000" stroke="none">
<path d="M2 791 c3 -8 198 -218 331 -356 l58 -60 194 200 195 200 0 -175 0
-176 -127 -134 c-71 -74 -157 -165 -193 -203 l-66 -69 -80 84 c-44 45 -129
135 -189 199 -61 64 -113 117 -117 118 -5 0 -8 -14 -8 -31 0 -36 12 -51 137
-181 127 -132 152 -164 146 -187 -5 -20 -3 -21 108 -18 112 3 114 3 111 26 -3
23 15 44 205 242 l73 75 0 -172 c0 -109 4 -173 10 -173 7 0 10 140 10 400 l0
400 -401 0 c-234 0 -399 -4 -397 -9z"/>
</g>
</svg>
